<svg id="visual" viewBox="0 0 900 600" width="900" height="600" xmlns="http://www.w3.org/2000/svg" xmlns:xlink="http://www.w3.org/1999/xlink" version="1.1"><rect x="0" y="0" width="900" height="600" fill="#002233"></rect><path d="M0 292L15 301C30 310 60 328 90 328.8C120 329.7 150 313.3 180 315C210 316.7 240 336.3 270 338.8C300 341.3 330 326.7 360 333.2C390 339.7 420 367.3 450 386.7C480 406 510 417 540 407.3C570 397.7 600 367.3 630 361.2C660 355 690 373 720 387.5C750 402 780 413 810 408.3C840 403.7 870 383.3 885 373.2L900 363L900 601L885 601C870 601 840 601 810 601C780 601 750 601 720 601C690 601 660 601 630 601C600 601 570 601 540 601C510 601 480 601 450 601C420 601 390 601 360 601C330 601 300 601 270 601C240 601 210 601 180 601C150 601 120 601 90 601C60 601 30 601 15 601L0 601Z" fill="#fff" stroke-linecap="round" stroke-linejoin="miter"></path></svg>