<svg id="visual" viewBox="0 0 900 600" width="900" height="600" xmlns="http://www.w3.org/2000/svg" xmlns:xlink="http://www.w3.org/1999/xlink" version="1.1"><rect x="0" y="0" width="900" height="600" fill="#002233"></rect><path d="M0 331L21.5 331C43 331 86 331 128.8 313.7C171.7 296.3 214.3 261.7 257.2 249.8C300 238 343 249 385.8 264.8C428.7 280.7 471.3 301.3 514.2 295.3C557 289.3 600 256.7 642.8 255.8C685.7 255 728.3 286 771.2 294.2C814 302.3 857 287.7 878.5 280.3L900 273L900 0L878.5 0C857 0 814 0 771.2 0C728.3 0 685.7 0 642.8 0C600 0 557 0 514.2 0C471.3 0 428.7 0 385.8 0C343 0 300 0 257.2 0C214.3 0 171.7 0 128.8 0C86 0 43 0 21.5 0L0 0Z" fill="#fff" stroke-linecap="round" stroke-linejoin="miter"></path></svg>